<svg width="232" height="232" viewBox="0 0 232 232" fill="none" xmlns="http://www.w3.org/2000/svg">
<path d="M11.6 116H58C58 100.617 64.1107 85.8649 74.9878 74.9878C85.8649 64.1107 100.617 58 116 58C131.383 58 146.135 64.1107 157.012 74.9878C167.889 85.8649 174 100.617 174 116H220.4C223.477 116 226.427 117.222 228.602 119.398C230.778 121.573 232 124.524 232 127.6C232 130.677 230.778 133.627 228.602 135.802C226.427 137.978 223.477 139.2 220.4 139.2H11.6C8.52349 139.2 5.57298 137.978 3.39756 135.802C1.22214 133.627 0 130.677 0 127.6C0 124.524 1.22214 121.573 3.39756 119.398C5.57298 117.222 8.52349 116 11.6 116ZM34.8 162.4H197.2C200.277 162.4 203.227 163.622 205.402 165.798C207.578 167.973 208.8 170.923 208.8 174C208.8 177.077 207.578 180.027 205.402 182.202C203.227 184.378 200.277 185.6 197.2 185.6H34.8C31.7235 185.6 28.773 184.378 26.5976 182.202C24.4221 180.027 23.2 177.077 23.2 174C23.2 170.923 24.4221 167.973 26.5976 165.798C28.773 163.622 31.7235 162.4 34.8 162.4ZM174 208.8C177.077 208.8 180.027 210.022 182.202 212.198C184.378 214.373 185.6 217.324 185.6 220.4C185.6 223.477 184.378 226.427 182.202 228.602C180.027 230.778 177.077 232 174 232H58C54.9235 232 51.973 230.778 49.7976 228.602C47.6221 226.427 46.4 223.477 46.4 220.4C46.4 217.324 47.6221 214.373 49.7976 212.198C51.973 210.022 54.9235 208.8 58 208.8H174ZM150.8 116C150.8 106.77 147.134 97.919 140.607 91.3927C134.081 84.8664 125.23 81.2 116 81.2C106.77 81.2 97.919 84.8664 91.3927 91.3927C84.8664 97.919 81.2 106.77 81.2 116H150.8ZM116 0L143.724 39.672C135.14 36.54 125.744 34.8 116 34.8C106.256 34.8 96.86 36.54 88.276 39.672L116 0ZM15.544 58L63.8 53.94C56.84 59.856 50.576 67.048 45.704 75.4C40.6 83.984 37.7 92.8 36.076 101.964L15.544 58ZM216.34 58L195.808 101.964C194.184 92.8 191.052 83.868 186.18 75.4C181.308 67.048 175.16 59.74 168.2 53.824L216.34 58Z" fill="#DAA520"/>
</svg>
