<svg width="369" height="252" viewBox="0 0 369 252" fill="none" xmlns="http://www.w3.org/2000/svg">
<path d="M301.458 33.9584H167.792V150.917H34.125V0.541748H0.708313V251.167H34.125V201.042H334.875V251.167H368.292V100.792C368.292 83.0664 361.25 66.0671 348.717 53.5334C336.183 40.9998 319.184 33.9584 301.458 33.9584ZM100.958 134.208C114.252 134.208 127.002 128.927 136.402 119.527C145.802 110.127 151.083 97.3774 151.083 84.0834C151.083 70.7894 145.802 58.04 136.402 48.6397C127.002 39.2394 114.252 33.9584 100.958 33.9584C87.6643 33.9584 74.9149 39.2394 65.5146 48.6397C56.1143 58.04 50.8333 70.7894 50.8333 84.0834C50.8333 97.3774 56.1143 110.127 65.5146 119.527C74.9149 128.927 87.6643 134.208 100.958 134.208Z" fill="#DB890C"/>
</svg>
