<svg width="80" height="80" viewBox="0 0 80 80" fill="none" xmlns="http://www.w3.org/2000/svg">
<path d="M40.0001 66.6667C47.0725 66.6667 53.8553 63.8572 58.8563 58.8562C63.8572 53.8552 66.6667 47.0725 66.6667 40C66.6667 32.9276 63.8572 26.1448 58.8563 21.1438C53.8553 16.1429 47.0725 13.3334 40.0001 13.3334C32.9276 13.3334 26.1449 16.1429 21.1439 21.1438C16.1429 26.1448 13.3334 32.9276 13.3334 40C13.3334 47.0725 16.1429 53.8552 21.1439 58.8562C26.1449 63.8572 32.9276 66.6667 40.0001 66.6667ZM40.0001 6.66669C44.3775 6.66669 48.712 7.52888 52.7562 9.20404C56.8004 10.8792 60.475 13.3345 63.5703 16.4298C66.6656 19.5251 69.1209 23.1997 70.7961 27.2439C72.4712 31.2881 73.3334 35.6226 73.3334 40C73.3334 48.8406 69.8215 57.319 63.5703 63.5702C57.3191 69.8215 48.8406 73.3334 40.0001 73.3334C21.5667 73.3334 6.66675 58.3334 6.66675 40C6.66675 31.1595 10.1786 22.681 16.4299 16.4298C22.6811 10.1786 31.1595 6.66669 40.0001 6.66669ZM41.6667 23.3334V40.8334L56.6667 49.7334L54.1667 53.8334L36.6667 43.3334V23.3334H41.6667Z" fill="#DB890C"/>
</svg>
