<svg width="80" height="80" viewBox="0 0 80 80" fill="none" xmlns="http://www.w3.org/2000/svg">
<path d="M40.9361 58.65C51.7461 58.65 60.5286 50.3587 60.9024 40C60.5286 29.6412 51.7461 21.35 40.9361 21.35C30.1274 21.35 21.3424 29.6412 20.9736 40C21.3411 50.3587 30.1261 58.65 40.9361 58.65Z" fill="#DB890C"/>
<path d="M40.9375 12.5C25.75 12.5 13.4363 24.8125 13.4363 40C13.4363 55.1863 25.7513 67.5 40.9375 67.5C56.1238 67.5 68.4375 55.1863 68.4375 40C68.4375 24.8125 56.1238 12.5 40.9375 12.5ZM40.9363 60C29.89 60 20.935 51.3488 20.935 40.6738C20.935 40.4463 20.9663 40.225 20.9738 40C20.9663 39.775 20.935 39.5525 20.935 39.3263C20.935 28.6513 29.8913 20 40.9363 20C51.9825 20 60.9363 28.6513 60.9363 39.3263C60.9363 39.5525 60.91 39.775 60.9038 40C60.9113 40.225 60.9363 40.4463 60.9363 40.6738C60.935 51.3488 51.9825 60 40.9363 60Z" fill="#DB890C"/>
<path d="M4.3513 9.27624C4.6513 8.09999 5.24505 9.26249 5.24505 9.26249C5.24505 9.26249 5.45255 21.4375 6.80255 21.57C8.15255 21.7025 7.11255 9.04249 8.71005 8.79999C10.195 8.56374 9.34755 21.7712 10.7 21.6375C12.0475 21.495 12.275 9.32499 12.275 9.32499C12.275 9.32499 12.875 8.16374 13.1713 9.33124C16.8313 23.7187 13.87 29.6 13.87 29.6C13.87 29.6 13.37 30.8362 12.1825 30.8425C12.0713 30.8362 12.155 65.0125 12.1475 69.6075C12.15 71.8412 5.27255 71.7725 5.2763 69.5487C5.2813 64.9537 5.41505 30.7812 5.30755 30.7837C4.1163 30.7837 3.61755 29.5487 3.61755 29.5487C3.61755 29.5487 0.667546 23.6712 4.3513 9.27624ZM69.525 8.74999C71.0725 8.74624 77.4925 13.375 77.5 30.5775C77.5075 36.0787 74.5063 36.0775 74.5113 39.5187C74.5163 42.9537 74.535 70.2762 74.535 70.2762C74.535 70.2762 71.2425 72.535 68.795 70.1712L68.75 9.23874C68.7525 9.23999 68.7438 8.74874 69.525 8.74999Z" fill="#DB890C"/>
</svg>
