<svg width="966" height="232" viewBox="0 0 966 232" fill="none" xmlns="http://www.w3.org/2000/svg">
<path d="M11.6 116H58C58 100.617 64.1107 85.8649 74.9878 74.9878C85.8649 64.1107 100.617 58 116 58C131.383 58 146.135 64.1107 157.012 74.9878C167.889 85.8649 174 100.617 174 116H220.4C223.477 116 226.427 117.222 228.602 119.398C230.778 121.573 232 124.524 232 127.6C232 130.677 230.778 133.627 228.602 135.802C226.427 137.978 223.477 139.2 220.4 139.2H11.6C8.52349 139.2 5.57298 137.978 3.39756 135.802C1.22214 133.627 0 130.677 0 127.6C0 124.524 1.22214 121.573 3.39756 119.398C5.57298 117.222 8.52349 116 11.6 116ZM34.8 162.4H197.2C200.277 162.4 203.227 163.622 205.402 165.798C207.578 167.973 208.8 170.923 208.8 174C208.8 177.077 207.578 180.027 205.402 182.202C203.227 184.378 200.277 185.6 197.2 185.6H34.8C31.7235 185.6 28.773 184.378 26.5976 182.202C24.4221 180.027 23.2 177.077 23.2 174C23.2 170.923 24.4221 167.973 26.5976 165.798C28.773 163.622 31.7235 162.4 34.8 162.4ZM174 208.8C177.077 208.8 180.027 210.022 182.202 212.198C184.378 214.373 185.6 217.324 185.6 220.4C185.6 223.477 184.378 226.427 182.202 228.602C180.027 230.778 177.077 232 174 232H58C54.9235 232 51.973 230.778 49.7976 228.602C47.6221 226.427 46.4 223.477 46.4 220.4C46.4 217.324 47.6221 214.373 49.7976 212.198C51.973 210.022 54.9235 208.8 58 208.8H174ZM150.8 116C150.8 106.77 147.134 97.919 140.607 91.3927C134.081 84.8664 125.23 81.2 116 81.2C106.77 81.2 97.919 84.8664 91.3927 91.3927C84.8664 97.919 81.2 106.77 81.2 116H150.8ZM116 0L143.724 39.672C135.14 36.54 125.744 34.8 116 34.8C106.256 34.8 96.86 36.54 88.276 39.672L116 0ZM15.544 58L63.8 53.94C56.84 59.856 50.576 67.048 45.704 75.4C40.6 83.984 37.7 92.8 36.076 101.964L15.544 58ZM216.34 58L195.808 101.964C194.184 92.8 191.052 83.868 186.18 75.4C181.308 67.048 175.16 59.74 168.2 53.824L216.34 58Z" fill="#DAA520"/>
<path d="M265.891 74.4375L260.031 103.969C259.406 106.844 259.094 108.891 259.094 110.109C259.094 110.766 259.281 111.578 259.656 112.547C256.5 114.141 253.641 114.938 251.078 114.938C249.422 114.938 248.594 114.281 248.594 112.969C248.594 112.312 248.906 110.375 249.531 107.156L256.047 74.4375H254.125C249.531 74.4375 244.781 75.7188 239.875 78.2812C241.188 74.5 242.922 71.9531 245.078 70.6406C247.234 69.3281 250.734 68.6719 255.578 68.6719H257.219L262.047 44.3438C259.297 44.75 256.734 44.9531 254.359 44.9531C249.422 44.9531 246.5 41.7031 245.594 35.2031C247.844 37.0781 250.875 38.0156 254.688 38.0156C259.656 38.0156 265.906 37.5312 273.438 36.5625L267.016 68.6719H291.672C294.641 55.3281 297.766 45.4219 301.047 38.9531C302.859 35.4219 304.5 33.1875 305.969 32.25C307.438 31.3125 310.328 30.6875 314.641 30.375C315.172 30.3125 315.969 30.25 317.031 30.1875C309.625 38.6875 304.375 51.5156 301.281 68.6719H302.125C304.562 68.6719 307.594 67.5625 311.219 65.3438C310.469 71.4062 307.453 74.4375 302.172 74.4375H300.109C299.172 79.3125 298.703 84.4531 298.703 89.8594C298.703 98.8594 301.469 103.359 307 103.359C309.281 103.359 311.812 102.391 314.594 100.453C314.125 106.641 310.062 109.734 302.406 109.734C293.438 109.734 288.953 102.891 288.953 89.2031C288.953 84.5781 289.484 79.6562 290.547 74.4375H265.891ZM358.188 46.5938C363.031 40.125 369.422 36.8906 377.359 36.8906C384.141 36.8906 389.734 39.3594 394.141 44.2969C398.547 49.2031 400.75 55.4375 400.75 63C400.75 74.7812 396.016 85.5156 386.547 95.2031C377.078 104.891 366.594 109.734 355.094 109.734C346.812 109.734 339.969 107 334.562 101.531C329.188 96.0312 326.5 89.0781 326.5 80.6719C326.5 71.5469 329.562 63.6875 335.688 57.0938C341.844 50.5 349.344 47 358.188 46.5938ZM354.625 51.7031C349.062 53.0469 344.672 56.0312 341.453 60.6562C338.234 65.2812 336.625 70.9688 336.625 77.7188C336.625 85.25 338.812 91.4688 343.188 96.375C347.562 101.25 353.141 103.688 359.922 103.688C368.047 103.688 375.219 99.8438 381.438 92.1562C387.656 84.4688 390.766 75.5781 390.766 65.4844C390.766 59.6094 389.219 54.6719 386.125 50.6719C383.031 46.6719 379.219 44.6719 374.688 44.6719C370.094 44.6719 366.109 46.5469 362.734 50.2969C359.359 54.0156 357.672 58.4375 357.672 63.5625C357.672 67.1875 358.531 70.5312 360.25 73.5938C356.844 72.9688 354.562 72.0469 353.406 70.8281C352.281 69.6094 351.719 67.4531 351.719 64.3594C351.719 60.3281 352.688 56.1094 354.625 51.7031ZM445.797 45.8438L435.25 98.7656C434.656 101.703 434.359 103.625 434.359 104.531C434.359 105.406 434.562 106.344 434.969 107.344C431.75 108.938 428.859 109.734 426.297 109.734C424.672 109.734 423.859 109.078 423.859 107.766C423.859 107.109 424.172 105.172 424.797 101.953L435.953 45.8438H429.438C422.031 45.8438 415.641 46.5469 410.266 47.9531C411.297 43.7969 412.688 41.2031 414.438 40.1719C416.188 39.1406 420.016 38.625 425.922 38.625H457.656C466.188 38.625 471.828 35.5469 474.578 29.3906C475.672 31.2344 476.219 32.7188 476.219 33.8438C476.219 37.9062 473.703 41.1719 468.672 43.6406C465.641 45.1094 459.891 45.8438 451.422 45.8438H445.797ZM491.969 73.3125L489.578 85.3594C488.578 90.3594 488.078 93.9062 488.078 96C488.078 100.156 492.109 102.234 500.172 102.234C508.172 102.234 515.219 100.812 521.312 97.9688C519.906 102.656 517.578 105.547 514.328 106.641C512.359 107.297 508.938 107.969 504.062 108.656C499.188 109.375 495.438 109.734 492.812 109.734C482.594 109.734 477.484 106.344 477.484 99.5625C477.484 97.75 477.984 94.2656 478.984 89.1094L482.125 73.3125H481.422C478.266 73.3125 475.203 74 472.234 75.375C473.953 72 475.359 69.8438 476.453 68.9062C477.578 67.9688 479.344 67.5 481.75 67.5H483.297L487.891 44.3906H486.531C480.75 44.3906 475.391 46.2344 470.453 49.9219C472.016 44.9219 474.156 41.7031 476.875 40.2656C479 39.1719 485.547 38.625 496.516 38.625H510.484C519.297 38.625 526.453 37.75 531.953 36C529.484 39.9062 527.281 42.2812 525.344 43.125C523.438 43.9688 519.281 44.3906 512.875 44.3906H497.734L493.094 67.5H502.797C509.578 67.5 514.984 66.6406 519.016 64.9219C516.891 68.8906 515 71.2812 513.344 72.0938C511.688 72.9062 507.797 73.3125 501.672 73.3125H491.969ZM583.75 97.7812C582.719 100.844 581.5 103.078 580.094 104.484C578.688 105.891 575.125 107.109 569.406 108.141C563.719 109.203 557.703 109.734 551.359 109.734C541.391 109.734 536.406 106.328 536.406 99.5156C536.406 97.6094 536.938 94 538 88.6875L547.141 42.6562C547.672 40 547.938 38.0938 547.938 36.9375C547.938 35.875 547.562 34.8906 546.812 33.9844C550.969 32.4219 553.859 31.6406 555.484 31.6406C557.422 31.6406 558.391 32.75 558.391 34.9688C558.391 35.5312 557.875 38.2812 556.844 43.2188L548.688 84.3281C547.5 90.2344 546.906 94.3438 546.906 96.6562C546.906 100.562 551.234 102.516 559.891 102.516C567.609 102.516 575.562 100.938 583.75 97.7812ZM625 91.6406C625 96.7344 626.391 100.734 629.172 103.641C631.984 106.547 635.859 108 640.797 108C645.172 108 648.969 106.688 652.188 104.062C655.406 101.438 657.016 98.3594 657.016 94.8281C657.016 91.0469 653.469 85.8438 646.375 79.2188L641.219 74.4375C634.625 68.3125 631.328 62.6719 631.328 57.5156C631.328 51.5156 633.672 46.5781 638.359 42.7031C643.047 38.8281 649.016 36.8906 656.266 36.8906C660.109 36.8906 663.219 37.4844 665.594 38.6719C667.969 39.8281 669.156 41.3438 669.156 43.2188C669.156 45.0625 668.312 47.2031 666.625 49.6406C663.906 44.3906 659.484 41.7656 653.359 41.7656C649.547 41.7656 646.328 42.9531 643.703 45.3281C641.109 47.6719 639.812 50.5781 639.812 54.0469C639.812 56.3594 640.234 58.125 641.078 59.3438C641.953 60.5625 644.625 63.2188 649.094 67.3125L653.312 71.2031C661 78.3594 664.844 84.7812 664.844 90.4688C664.844 97.0938 662.219 102.594 656.969 106.969C651.719 111.312 645.109 113.484 637.141 113.484C631.797 113.484 627.375 112.234 623.875 109.734C620.406 107.234 618.672 104.078 618.672 100.266C618.672 97.6719 620.781 94.7969 625 91.6406ZM725.172 87.1406C715.766 100.672 706.531 107.438 697.469 107.438C692.562 107.438 688.516 105.656 685.328 102.094C682.141 98.5 680.547 93.9531 680.547 88.4531C680.547 77.4219 684.828 62.7812 693.391 44.5312C690.797 45.0312 688.391 45.2812 686.172 45.2812C683.266 45.2812 681.125 44.5625 679.75 43.125C678.375 41.6562 677.422 39.125 676.891 35.5312C679.234 37.375 682.266 38.2969 685.984 38.2969C688.109 38.2969 695.203 37.75 707.266 36.6562C696.234 58.2188 690.719 74.6719 690.719 86.0156C690.719 90.0781 691.719 93.4062 693.719 96C695.75 98.5938 698.344 99.8906 701.5 99.8906C705.938 99.8906 710.328 97.7188 714.672 93.375C719.047 89 723.156 82.6719 727 74.3906C729.75 59.1719 732.188 49.8125 734.312 46.3125C736.469 42.8125 740.797 41.0625 747.297 41.0625C744.453 44.7188 741.641 52.3594 738.859 63.9844C736.078 75.5781 734.688 85.4844 734.688 93.7031C734.688 100.172 736.656 103.406 740.594 103.406C743.062 103.406 745.969 102.078 749.312 99.4219C749.438 100.172 749.5 100.734 749.5 101.109C749.5 103.234 748.219 105.203 745.656 107.016C743.094 108.828 740.312 109.734 737.312 109.734C728.906 109.734 724.703 104.391 724.703 93.7031C724.703 92.2031 724.859 90.0156 725.172 87.1406ZM757.797 63.4219C756.516 61.9531 755.875 60.2031 755.875 58.1719C755.875 52.9844 760.266 48.1406 769.047 43.6406C777.859 39.1406 787.297 36.8906 797.359 36.8906C812.859 36.8906 820.609 41.8281 820.609 51.7031C820.609 56.4844 818.938 60.5625 815.594 63.9375C812.281 67.2812 806.484 70.7656 798.203 74.3906C805.672 91.4219 812.109 99.9375 817.516 99.9375C820.359 99.9375 823.406 97.9375 826.656 93.9375C826.812 94.7188 826.891 95.2656 826.891 95.5781C826.891 98.2031 825.344 100.938 822.25 103.781C819.156 106.594 816.172 108 813.297 108C805.984 108 798.188 98.0312 789.906 78.0938C788.25 78.5625 786.75 78.7969 785.406 78.7969C784.75 78.7969 784.141 78.6719 783.578 78.4219C784.734 72.5156 787.672 69.5625 792.391 69.5625C793.328 69.5625 794.484 69.75 795.859 70.125C806.109 66.6875 811.234 60.9844 811.234 53.0156C811.234 50.0781 809.766 47.6719 806.828 45.7969C803.922 43.8906 800.203 42.9375 795.672 42.9375C787.984 42.9375 780.594 44.8594 773.5 48.7031C766.406 52.5156 761.172 57.4219 757.797 63.4219ZM774.672 112.547C771.484 114.141 768.594 114.938 766 114.938C764.375 114.938 763.562 114.281 763.562 112.969C763.562 112.281 763.922 110.328 764.641 107.109L773.641 61.7344C774.172 59.1094 774.438 57.2188 774.438 56.0625C774.438 54.9688 774.062 53.9688 773.312 53.0625C777.469 51.5 780.359 50.7188 781.984 50.7188C783.953 50.7188 784.938 51.8438 784.938 54.0938C784.938 54.625 784.422 57.3594 783.391 62.2969L775.094 103.969C774.5 106.875 774.203 108.922 774.203 110.109C774.203 110.766 774.359 111.578 774.672 112.547ZM862.516 75.5625L857.922 98.7656C857.328 101.703 857.031 103.625 857.031 104.531C857.031 105.406 857.219 106.344 857.594 107.344C854.406 108.938 851.531 109.734 848.969 109.734C847.312 109.734 846.484 109.078 846.484 107.766C846.484 107.078 846.812 105.125 847.469 101.906L852.672 75.5625C850.766 67.0312 847.875 59.1875 844 52.0312C840.156 44.875 836.234 40.0938 832.234 37.6875C835.516 35.4062 838 34.2656 839.688 34.2656C845.688 34.2656 852.719 46.5312 860.781 71.0625C866.938 65.6562 872.328 60.0469 876.953 54.2344C881.609 48.4219 883.938 44.3594 883.938 42.0469C883.938 40.7656 883.422 39.6406 882.391 38.6719C885.047 37.4844 887.141 36.8906 888.672 36.8906C891.234 36.8906 892.516 38.25 892.516 40.9688C892.516 44 889.422 49.0781 883.234 56.2031C877.047 63.3281 870.141 69.7812 862.516 75.5625ZM906.344 84.9375L905.406 86.7188C901.469 94.0625 899.5 99.75 899.5 103.781C899.5 104.969 899.953 106.125 900.859 107.25C900.109 107.5 898.422 108.109 895.797 109.078C894.578 109.516 893.422 109.734 892.328 109.734C890.141 109.734 889.047 108.688 889.047 106.594C889.047 102.25 891.75 95.625 897.156 86.7188L898.609 84.3281H896.219C891.094 84.3281 887.125 85.125 884.312 86.7188C885.781 81.4375 889.734 78.7969 896.172 78.7969L901.984 78.9375L903.25 77.0625C908.156 69.6875 915.656 59.7656 925.75 47.2969C929.156 43.0781 931.703 40.4531 933.391 39.4219C935.078 38.3906 938.344 37.4531 943.188 36.6094C942.281 42.2344 941.828 47.4688 941.828 52.3125C941.828 65.1562 943.312 78.1719 946.281 91.3594C947.906 98.6094 950.391 103.281 953.734 105.375C950.797 108.281 948.281 109.734 946.188 109.734C941.25 109.734 937.438 101.266 934.75 84.3281C929.594 84.8906 924.391 85.1719 919.141 85.1719L906.344 84.9375ZM909.719 79.4062L919.188 79.6406C925.656 79.6406 930.609 79.4219 934.047 78.9844C932.609 68.0156 931.891 58.9219 931.891 51.7031L931.938 48.1875C930.906 49.5 928.594 52.3438 925 56.7188C918.5 64.6875 913.734 71.6406 910.703 77.5781L909.719 79.4062Z" fill="#66CE51"/>
<path d="M250.307 182.854C249.613 182.058 249.266 181.11 249.266 180.01C249.266 177.2 251.644 174.576 256.4 172.139C261.174 169.701 266.286 168.482 271.736 168.482C280.132 168.482 284.33 171.157 284.33 176.506C284.33 179.096 283.424 181.305 281.613 183.133C279.819 184.944 276.679 186.831 272.193 188.795C276.239 198.02 279.726 202.633 282.654 202.633C284.195 202.633 285.845 201.549 287.605 199.383C287.69 199.806 287.732 200.102 287.732 200.271C287.732 201.693 286.895 203.174 285.219 204.715C283.543 206.238 281.926 207 280.369 207C276.408 207 272.185 201.6 267.699 190.801C266.802 191.055 265.99 191.182 265.262 191.182C264.906 191.182 264.576 191.114 264.271 190.979C264.898 187.779 266.489 186.18 269.045 186.18C269.553 186.18 270.179 186.281 270.924 186.484C276.476 184.622 279.252 181.533 279.252 177.217C279.252 175.626 278.456 174.322 276.865 173.307C275.291 172.274 273.277 171.758 270.822 171.758C266.658 171.758 262.655 172.799 258.812 174.881C254.97 176.946 252.135 179.604 250.307 182.854ZM259.447 209.463C257.721 210.326 256.155 210.758 254.75 210.758C253.87 210.758 253.43 210.402 253.43 209.691C253.43 209.319 253.624 208.261 254.014 206.518L258.889 181.939C259.176 180.518 259.32 179.493 259.32 178.867C259.32 178.275 259.117 177.733 258.711 177.242C260.962 176.396 262.528 175.973 263.408 175.973C264.475 175.973 265.008 176.582 265.008 177.801C265.008 178.089 264.729 179.57 264.17 182.244L259.676 204.816C259.354 206.391 259.193 207.499 259.193 208.143C259.193 208.498 259.278 208.938 259.447 209.463ZM302.992 188.211L301.697 194.736C301.156 197.445 300.885 199.366 300.885 200.5C300.885 202.751 303.068 203.877 307.436 203.877C311.769 203.877 315.586 203.107 318.887 201.566C318.125 204.105 316.864 205.671 315.104 206.264C314.037 206.619 312.184 206.983 309.543 207.355C306.902 207.745 304.871 207.939 303.449 207.939C297.914 207.939 295.146 206.103 295.146 202.43C295.146 201.448 295.417 199.561 295.959 196.768L297.66 188.211H297.279C295.57 188.211 293.911 188.583 292.303 189.328C293.234 187.5 293.995 186.332 294.588 185.824C295.197 185.316 296.154 185.062 297.457 185.062H298.295L300.783 172.545H300.047C296.915 172.545 294.012 173.544 291.338 175.541C292.184 172.833 293.344 171.089 294.816 170.311C295.967 169.718 299.514 169.422 305.455 169.422H313.021C317.795 169.422 321.671 168.948 324.65 168C323.313 170.116 322.12 171.402 321.07 171.859C320.038 172.316 317.786 172.545 314.316 172.545H306.115L303.602 185.062H308.857C312.531 185.062 315.459 184.597 317.643 183.666C316.492 185.816 315.467 187.111 314.57 187.551C313.673 187.991 311.566 188.211 308.248 188.211H302.992ZM325.691 198.139C325.691 200.898 326.445 203.064 327.951 204.639C329.475 206.213 331.574 207 334.248 207C336.618 207 338.674 206.289 340.418 204.867C342.161 203.445 343.033 201.778 343.033 199.865C343.033 197.817 341.112 194.999 337.27 191.41L334.477 188.82C330.905 185.503 329.119 182.447 329.119 179.654C329.119 176.404 330.389 173.73 332.928 171.631C335.467 169.532 338.7 168.482 342.627 168.482C344.709 168.482 346.393 168.804 347.68 169.447C348.966 170.074 349.609 170.895 349.609 171.91C349.609 172.909 349.152 174.068 348.238 175.389C346.766 172.545 344.37 171.123 341.053 171.123C338.988 171.123 337.244 171.766 335.822 173.053C334.417 174.322 333.715 175.896 333.715 177.775C333.715 179.028 333.943 179.984 334.4 180.645C334.874 181.305 336.322 182.743 338.742 184.961L341.027 187.068C345.191 190.945 347.273 194.423 347.273 197.504C347.273 201.092 345.852 204.072 343.008 206.441C340.164 208.794 336.584 209.971 332.268 209.971C329.373 209.971 326.978 209.294 325.082 207.939C323.203 206.585 322.264 204.876 322.264 202.811C322.264 201.406 323.406 199.848 325.691 198.139ZM373.908 173.332L368.195 201.998C367.874 203.589 367.713 204.63 367.713 205.121C367.713 205.595 367.823 206.103 368.043 206.645C366.299 207.508 364.734 207.939 363.346 207.939C362.465 207.939 362.025 207.584 362.025 206.873C362.025 206.518 362.195 205.468 362.533 203.725L368.576 173.332H365.047C361.035 173.332 357.574 173.713 354.662 174.475C355.221 172.223 355.974 170.818 356.922 170.26C357.87 169.701 359.943 169.422 363.143 169.422H380.332C384.953 169.422 388.008 167.755 389.498 164.42C390.09 165.419 390.387 166.223 390.387 166.832C390.387 169.033 389.024 170.801 386.299 172.139C384.657 172.934 381.542 173.332 376.955 173.332H373.908ZM396.328 194.508L395.82 195.473C393.688 199.451 392.621 202.531 392.621 204.715C392.621 205.358 392.867 205.984 393.357 206.594C392.951 206.729 392.037 207.059 390.615 207.584C389.955 207.821 389.329 207.939 388.736 207.939C387.551 207.939 386.959 207.372 386.959 206.238C386.959 203.885 388.423 200.297 391.352 195.473L392.139 194.178H390.844C388.068 194.178 385.918 194.609 384.395 195.473C385.19 192.612 387.331 191.182 390.818 191.182L393.967 191.258L394.652 190.242C397.31 186.247 401.372 180.873 406.84 174.119C408.685 171.834 410.064 170.412 410.979 169.854C411.893 169.295 413.661 168.787 416.285 168.33C415.794 171.377 415.549 174.212 415.549 176.836C415.549 183.793 416.353 190.843 417.961 197.986C418.841 201.913 420.187 204.444 421.998 205.578C420.407 207.152 419.044 207.939 417.91 207.939C415.236 207.939 413.171 203.352 411.715 194.178C408.922 194.482 406.104 194.635 403.26 194.635L396.328 194.508ZM398.156 191.512L403.285 191.639C406.789 191.639 409.472 191.52 411.334 191.283C410.555 185.342 410.166 180.416 410.166 176.506L410.191 174.602C409.633 175.312 408.38 176.853 406.434 179.223C402.913 183.539 400.331 187.305 398.689 190.521L398.156 191.512ZM454.092 195.701C448.997 203.031 443.995 206.695 439.086 206.695C436.428 206.695 434.236 205.73 432.51 203.801C430.783 201.854 429.92 199.391 429.92 196.412C429.92 190.437 432.239 182.507 436.877 172.621C435.472 172.892 434.169 173.027 432.967 173.027C431.393 173.027 430.233 172.638 429.488 171.859C428.743 171.064 428.227 169.693 427.939 167.746C429.209 168.745 430.851 169.244 432.865 169.244C434.016 169.244 437.859 168.948 444.393 168.355C438.417 180.035 435.43 188.947 435.43 195.092C435.43 197.292 435.971 199.095 437.055 200.5C438.155 201.905 439.56 202.607 441.27 202.607C443.673 202.607 446.051 201.431 448.404 199.078C450.774 196.708 453 193.281 455.082 188.795C456.572 180.551 457.892 175.482 459.043 173.586C460.211 171.69 462.555 170.742 466.076 170.742C464.536 172.723 463.012 176.861 461.506 183.158C459.999 189.438 459.246 194.804 459.246 199.256C459.246 202.76 460.312 204.512 462.445 204.512C463.783 204.512 465.357 203.792 467.168 202.354C467.236 202.76 467.27 203.064 467.27 203.268C467.27 204.419 466.576 205.485 465.188 206.467C463.799 207.449 462.293 207.939 460.668 207.939C456.115 207.939 453.838 205.045 453.838 199.256C453.838 198.443 453.923 197.258 454.092 195.701ZM471.764 182.854C471.07 182.058 470.723 181.11 470.723 180.01C470.723 177.2 473.101 174.576 477.857 172.139C482.631 169.701 487.743 168.482 493.193 168.482C501.589 168.482 505.787 171.157 505.787 176.506C505.787 179.096 504.882 181.305 503.07 183.133C501.276 184.944 498.136 186.831 493.65 188.795C497.696 198.02 501.183 202.633 504.111 202.633C505.652 202.633 507.302 201.549 509.062 199.383C509.147 199.806 509.189 200.102 509.189 200.271C509.189 201.693 508.352 203.174 506.676 204.715C505 206.238 503.383 207 501.826 207C497.865 207 493.642 201.6 489.156 190.801C488.259 191.055 487.447 191.182 486.719 191.182C486.363 191.182 486.033 191.114 485.729 190.979C486.355 187.779 487.946 186.18 490.502 186.18C491.01 186.18 491.636 186.281 492.381 186.484C497.933 184.622 500.709 181.533 500.709 177.217C500.709 175.626 499.913 174.322 498.322 173.307C496.748 172.274 494.734 171.758 492.279 171.758C488.115 171.758 484.112 172.799 480.27 174.881C476.427 176.946 473.592 179.604 471.764 182.854ZM480.904 209.463C479.178 210.326 477.612 210.758 476.207 210.758C475.327 210.758 474.887 210.402 474.887 209.691C474.887 209.319 475.081 208.261 475.471 206.518L480.346 181.939C480.633 180.518 480.777 179.493 480.777 178.867C480.777 178.275 480.574 177.733 480.168 177.242C482.419 176.396 483.985 175.973 484.865 175.973C485.932 175.973 486.465 176.582 486.465 177.801C486.465 178.089 486.186 179.57 485.627 182.244L481.133 204.816C480.811 206.391 480.65 207.499 480.65 208.143C480.65 208.498 480.735 208.938 480.904 209.463ZM521.859 194.508L521.352 195.473C519.219 199.451 518.152 202.531 518.152 204.715C518.152 205.358 518.398 205.984 518.889 206.594C518.482 206.729 517.568 207.059 516.146 207.584C515.486 207.821 514.86 207.939 514.268 207.939C513.083 207.939 512.49 207.372 512.49 206.238C512.49 203.885 513.954 200.297 516.883 195.473L517.67 194.178H516.375C513.599 194.178 511.449 194.609 509.926 195.473C510.721 192.612 512.863 191.182 516.35 191.182L519.498 191.258L520.184 190.242C522.841 186.247 526.904 180.873 532.371 174.119C534.216 171.834 535.596 170.412 536.51 169.854C537.424 169.295 539.193 168.787 541.816 168.33C541.326 171.377 541.08 174.212 541.08 176.836C541.08 183.793 541.884 190.843 543.492 197.986C544.372 201.913 545.718 204.444 547.529 205.578C545.938 207.152 544.576 207.939 543.441 207.939C540.767 207.939 538.702 203.352 537.246 194.178C534.453 194.482 531.635 194.635 528.791 194.635L521.859 194.508ZM523.688 191.512L528.816 191.639C532.32 191.639 535.003 191.52 536.865 191.283C536.087 185.342 535.697 180.416 535.697 176.506L535.723 174.602C535.164 175.312 533.911 176.853 531.965 179.223C528.444 183.539 525.863 187.305 524.221 190.521L523.688 191.512ZM563.525 178.867L560.301 195.117C559.691 198.198 559.387 200.525 559.387 202.1C559.387 204.452 560.055 206.103 561.393 207.051C559.852 207.643 558.447 207.939 557.178 207.939C555.282 207.939 554.334 207.068 554.334 205.324C554.334 203.665 555.341 198.511 557.355 189.861L561.139 173.662L560.402 171.682C559.404 168.99 558.151 167.374 556.645 166.832C559.251 165.63 560.893 165.029 561.57 165.029C562.704 165.029 563.551 165.562 564.109 166.629C564.685 167.678 567.182 173.425 571.6 183.869C576.559 195.6 579.826 201.465 581.4 201.465C582.568 201.465 583.702 198.977 584.803 194C585.92 189.007 586.479 183.878 586.479 178.613C586.479 174.382 585.471 171.597 583.457 170.26C585.116 169.075 586.614 168.482 587.951 168.482C589.965 168.482 590.973 170.124 590.973 173.408C590.973 176.015 590.516 180.01 589.602 185.393C588.704 190.775 587.731 195.303 586.682 198.977C584.955 204.952 583.034 207.939 580.918 207.939C579.09 207.939 577.126 206.331 575.027 203.115C572.945 199.882 570.161 194.178 566.674 186.002C565.54 183.361 564.77 181.592 564.363 180.695L563.525 178.867ZM615.932 173.332L610.219 201.998C609.897 203.589 609.736 204.63 609.736 205.121C609.736 205.595 609.846 206.103 610.066 206.645C608.323 207.508 606.757 207.939 605.369 207.939C604.489 207.939 604.049 207.584 604.049 206.873C604.049 206.518 604.218 205.468 604.557 203.725L610.6 173.332H607.07C603.059 173.332 599.597 173.713 596.686 174.475C597.244 172.223 597.997 170.818 598.945 170.26C599.893 169.701 601.967 169.422 605.166 169.422H622.355C626.977 169.422 630.032 167.755 631.521 164.42C632.114 165.419 632.41 166.223 632.41 166.832C632.41 169.033 631.048 170.801 628.322 172.139C626.68 172.934 623.566 173.332 618.979 173.332H615.932ZM675.93 200.449C671.241 205.443 665.867 207.939 659.807 207.939C655.913 207.939 652.799 207.008 650.463 205.146C648.144 203.268 646.984 200.762 646.984 197.631C646.984 191.436 651.021 187.009 659.096 184.352C656.387 183.014 655.033 180.831 655.033 177.801C655.033 175.126 656.243 172.9 658.664 171.123C661.085 169.346 664.123 168.457 667.779 168.457C670.014 168.457 671.884 168.821 673.391 169.549C674.897 170.26 675.65 171.14 675.65 172.189C675.65 173.053 675.134 173.958 674.102 174.906C672.68 172.283 670.344 170.971 667.094 170.971C664.944 170.971 663.175 171.546 661.787 172.697C660.399 173.848 659.705 175.312 659.705 177.09C659.705 179.138 660.831 181.017 663.082 182.727C664.572 182.405 665.858 182.244 666.941 182.244C667.94 182.244 668.973 182.405 670.039 182.727C669.074 185.435 667.373 186.789 664.936 186.789C663.92 186.789 662.828 186.527 661.66 186.002C658.766 187.051 656.438 188.617 654.678 190.699C652.934 192.764 652.062 194.982 652.062 197.352C652.062 199.501 652.951 201.253 654.729 202.607C656.523 203.962 658.833 204.639 661.66 204.639C665.062 204.639 668.49 203.369 671.943 200.83C675.396 198.291 677.123 195.769 677.123 193.264C677.123 191.926 676.412 190.953 674.99 190.344L674.305 190.064C673.509 189.709 673.111 189.201 673.111 188.541C673.111 187.762 673.45 186.704 674.127 185.367C676.26 186.315 679.425 186.789 683.623 186.789C685.84 186.789 688.066 186.527 690.301 186.002C689.674 187.847 688.887 189.117 687.939 189.811C686.992 190.488 685.519 190.826 683.521 190.826C683.149 190.826 682.54 190.792 681.693 190.725C679.645 196.581 678.621 201.296 678.621 204.867C678.621 207.592 679.104 209.691 680.068 211.164C678.917 212.247 677.648 212.789 676.26 212.789C675.16 212.789 674.609 211.917 674.609 210.174C674.609 208.176 675.049 204.935 675.93 200.449ZM738.492 201.465C737.934 203.124 737.273 204.334 736.512 205.096C735.75 205.857 733.82 206.518 730.723 207.076C727.642 207.652 724.383 207.939 720.947 207.939C715.548 207.939 712.848 206.094 712.848 202.404C712.848 201.372 713.135 199.417 713.711 196.539L718.662 171.605C718.95 170.167 719.094 169.134 719.094 168.508C719.094 167.932 718.891 167.399 718.484 166.908C720.736 166.062 722.301 165.639 723.182 165.639C724.231 165.639 724.756 166.24 724.756 167.441C724.756 167.746 724.477 169.236 723.918 171.91L719.5 194.178C718.857 197.377 718.535 199.603 718.535 200.855C718.535 202.971 720.88 204.029 725.568 204.029C729.749 204.029 734.057 203.174 738.492 201.465ZM759.82 173.738C762.444 170.234 765.906 168.482 770.205 168.482C773.878 168.482 776.908 169.82 779.295 172.494C781.682 175.152 782.875 178.529 782.875 182.625C782.875 189.007 780.311 194.821 775.182 200.068C770.053 205.316 764.374 207.939 758.145 207.939C753.659 207.939 749.952 206.458 747.023 203.496C744.112 200.517 742.656 196.751 742.656 192.197C742.656 187.255 744.315 182.997 747.633 179.426C750.967 175.854 755.03 173.958 759.82 173.738ZM757.891 176.506C754.878 177.234 752.499 178.85 750.756 181.355C749.012 183.861 748.141 186.941 748.141 190.598C748.141 194.677 749.326 198.046 751.695 200.703C754.065 203.344 757.087 204.664 760.76 204.664C765.161 204.664 769.046 202.582 772.414 198.418C775.783 194.254 777.467 189.438 777.467 183.971C777.467 180.788 776.629 178.114 774.953 175.947C773.277 173.781 771.212 172.697 768.758 172.697C766.27 172.697 764.111 173.713 762.283 175.744C760.455 177.758 759.541 180.154 759.541 182.93C759.541 184.893 760.007 186.704 760.938 188.363C759.092 188.025 757.857 187.525 757.23 186.865C756.621 186.205 756.316 185.037 756.316 183.361C756.316 181.178 756.841 178.893 757.891 176.506ZM786.277 183.006C785.871 182.126 785.668 181.22 785.668 180.289C785.668 177.242 787.995 174.517 792.65 172.113C797.305 169.693 802.578 168.482 808.469 168.482C814.664 168.482 819.539 169.854 823.094 172.596C826.665 175.338 828.451 179.096 828.451 183.869C828.451 190.217 825.684 195.811 820.148 200.652C817.22 203.208 813.555 205.299 809.154 206.924C804.77 208.549 800.572 209.361 796.561 209.361C792.701 209.361 790.771 207.914 790.771 205.02C790.771 203.97 791.102 201.803 791.762 198.52L795.062 181.939C795.35 180.518 795.494 179.493 795.494 178.867C795.494 178.275 795.291 177.733 794.885 177.242C797.136 176.396 798.702 175.973 799.582 175.973C800.632 175.973 801.156 176.582 801.156 177.801C801.156 178.089 800.885 179.57 800.344 182.244L797.576 196.133C796.882 199.671 796.535 201.896 796.535 202.811C796.535 203.826 796.874 204.52 797.551 204.893C798.245 205.248 799.54 205.426 801.436 205.426C807.58 205.426 812.726 203.555 816.873 199.814C821.02 196.074 823.094 191.436 823.094 185.9C823.094 181.618 821.587 178.19 818.574 175.617C815.561 173.044 811.549 171.758 806.539 171.758C802.46 171.758 798.651 172.74 795.113 174.703C791.592 176.667 788.647 179.434 786.277 183.006ZM865.496 186.332L861.484 201.211C859.842 207.288 858.598 210.826 857.752 211.824C856.906 212.84 854.654 213.466 850.998 213.703C852.86 211.198 854.832 207.237 856.914 201.82C853.292 205.273 849.559 207 845.717 207C841.824 207 838.599 205.697 836.043 203.09C833.504 200.466 832.234 197.148 832.234 193.137C832.234 186.704 834.968 180.992 840.436 175.998C845.92 170.988 852.183 168.482 859.225 168.482C863.913 168.482 866.258 169.422 866.258 171.301C866.258 172.096 865.445 173.425 863.82 175.287C863.651 175.473 863.414 175.753 863.109 176.125C861.924 173.315 859.495 171.91 855.822 171.91C850.896 171.91 846.622 173.874 843 177.801C839.378 181.728 837.566 186.366 837.566 191.715C837.566 195.303 838.48 198.173 840.309 200.322C842.154 202.472 844.591 203.547 847.621 203.547C850.346 203.547 852.725 202.523 854.756 200.475C856.787 198.426 858.141 195.676 858.818 192.223L859.021 191.131C853.791 191.131 849.602 191.85 846.453 193.289C847.096 191.122 847.867 189.76 848.764 189.201C849.661 188.626 851.726 188.186 854.959 187.881L858.133 187.627C860.638 187.424 863.092 186.992 865.496 186.332ZM880.121 188.211L878.826 194.736C878.285 197.445 878.014 199.366 878.014 200.5C878.014 202.751 880.197 203.877 884.564 203.877C888.898 203.877 892.715 203.107 896.016 201.566C895.254 204.105 893.993 205.671 892.232 206.264C891.166 206.619 889.312 206.983 886.672 207.355C884.031 207.745 882 207.939 880.578 207.939C875.043 207.939 872.275 206.103 872.275 202.43C872.275 201.448 872.546 199.561 873.088 196.768L874.789 188.211H874.408C872.699 188.211 871.04 188.583 869.432 189.328C870.363 187.5 871.124 186.332 871.717 185.824C872.326 185.316 873.283 185.062 874.586 185.062H875.424L877.912 172.545H877.176C874.044 172.545 871.141 173.544 868.467 175.541C869.313 172.833 870.473 171.089 871.945 170.311C873.096 169.718 876.643 169.422 882.584 169.422H890.15C894.924 169.422 898.8 168.948 901.779 168C900.442 170.116 899.249 171.402 898.199 171.859C897.167 172.316 894.915 172.545 891.445 172.545H883.244L880.73 185.062H885.986C889.66 185.062 892.588 184.597 894.771 183.666C893.62 185.816 892.596 187.111 891.699 187.551C890.802 187.991 888.695 188.211 885.377 188.211H880.121Z" fill="#66CE51"/>
</svg>
