<svg width="80" height="80" viewBox="0 0 80 80" fill="none" xmlns="http://www.w3.org/2000/svg">
<path d="M27.0001 44.4667L13.0334 30.5333C10.5379 28.0281 9.13672 24.6361 9.13672 21.1C9.13672 17.5639 10.5379 14.1719 13.0334 11.6667L36.4334 35L27.0001 44.4667ZM49.6001 38.4333L44.7001 43.3333L67.6334 66.2667L62.9334 70.9667L40.0001 48.0333L17.0668 70.9667L12.3668 66.2667L44.9001 33.7333C42.5334 28.6333 44.2001 21.4667 49.5001 16.1667C55.8668 9.76667 65.0001 8.56667 69.8668 13.4333C74.7668 18.3333 73.5668 27.4667 67.1668 33.8333C61.8668 39.1333 54.7001 40.8 49.6001 38.4333Z" fill="#DB890C"/>
</svg>
