<svg width="80" height="80" viewBox="0 0 80 80" fill="none" xmlns="http://www.w3.org/2000/svg">
<path d="M40.0001 74.1514C58.6501 74.1514 74.1515 58.6829 74.1515 40C74.1515 21.35 58.6158 5.84857 39.9658 5.84857C21.2844 5.84857 5.8501 21.35 5.8501 40C5.8501 58.6829 21.3172 74.1514 40.0001 74.1514ZM40.0015 68.46C24.1958 68.46 11.5715 55.8029 11.5715 40C11.5715 24.2286 24.1615 11.54 39.9658 11.54C55.7358 11.54 68.4244 24.23 68.4587 40C68.4915 55.8043 55.7687 68.46 39.9987 68.46M30.2558 36.9529C32.2301 36.9529 33.8701 35.2114 33.8701 32.7671C33.8701 30.3243 32.2301 28.5814 30.2558 28.5814C28.313 28.5814 26.7058 30.3243 26.7058 32.7671C26.7058 35.2114 28.313 36.9529 30.2558 36.9529ZM49.8415 36.9529C51.8172 36.9529 53.4587 35.2114 53.4587 32.7671C53.4587 30.3243 51.8172 28.5814 49.843 28.5814C47.8672 28.5814 46.2601 30.3243 46.2601 32.7671C46.2601 35.2114 47.8658 36.9529 49.8415 36.9529ZM40.0001 56.1386C48.0687 56.1386 53.1244 50.4129 53.1244 48.2371C53.1244 47.8014 52.7901 47.6 52.4558 47.8686C50.0115 49.9114 45.893 51.92 39.9987 51.92C34.073 51.92 29.8558 49.7771 27.5115 47.9014C27.1758 47.6014 26.8415 47.8014 26.8415 48.2371C26.8415 50.4129 31.8972 56.1371 39.9987 56.1371" fill="#DB890C"/>
</svg>
