<svg width="80" height="80" viewBox="0 0 80 80" fill="none" xmlns="http://www.w3.org/2000/svg">
<path d="M10.7666 57.95V54.6167H69.2333V57.95H10.7666ZM13.3333 50V49.2333C13.3333 42.6778 15.5666 37.0078 20.0333 32.2233C24.5044 27.4433 30.0488 24.5878 36.6666 23.6567V22.18C36.6666 21.2867 36.9988 20.5078 37.6633 19.8433C38.3277 19.1767 39.1066 18.8433 39.9999 18.8433C40.8933 18.8433 41.6722 19.1767 42.3366 19.8433C43.001 20.51 43.3333 21.2878 43.3333 22.1767V23.6533C49.9666 24.5867 55.5133 27.4433 59.9733 32.2233C64.4333 37.0033 66.6644 42.6733 66.6666 49.2333V50H13.3333Z" fill="#DB890C"/>
</svg>
