<svg width="80" height="80" viewBox="0 0 80 80" fill="none" xmlns="http://www.w3.org/2000/svg">
<g clip-path="url(#clip0_11_10)">
<path d="M74.5555 18.2222C64.2954 11.4404 52.261 7.83937 39.962 7.871C27.6631 7.90262 15.6474 11.5655 5.42221 18.4C5.18 18.5634 4.97234 18.773 4.8111 19.0166C4.64986 19.2603 4.5382 19.5334 4.48248 19.8202C4.36996 20.3995 4.49217 20.9997 4.82221 21.4889C5.15226 21.9781 5.66311 22.3161 6.24239 22.4286C6.82167 22.5411 7.42193 22.4189 7.9111 22.0889C17.4092 15.7477 28.5673 12.3505 39.9876 12.3228C51.4079 12.2951 62.5824 15.6382 72.1111 21.9333C72.6032 22.2459 73.1985 22.3526 73.7685 22.2303C74.3385 22.1081 74.8377 21.7668 75.1584 21.2799C75.4791 20.793 75.5956 20.1997 75.4828 19.6277C75.37 19.0557 75.037 18.5509 74.5555 18.2222Z" fill="#DB890C"/>
<path d="M40.1112 23.8222C30.7273 23.8106 21.5634 26.6636 13.8445 32C13.4949 32.3734 13.2848 32.8559 13.2496 33.3661C13.2145 33.8764 13.3564 34.3831 13.6514 34.8009C13.9465 35.2187 14.3766 35.5219 14.8693 35.6594C15.3619 35.7968 15.8869 35.7602 16.3556 35.5556C23.3209 30.7927 31.5621 28.2444 40.0001 28.2444C48.438 28.2444 56.6793 30.7927 63.6445 35.5556C64.1305 35.834 64.7038 35.9187 65.2495 35.7926C65.7953 35.6665 66.2733 35.3389 66.5879 34.8754C66.9025 34.412 67.0304 33.8468 66.9462 33.2931C66.8619 32.7393 66.5716 32.2378 66.1334 31.8889C58.4698 26.6405 49.3997 23.8288 40.1112 23.8222Z" fill="#DB890C"/>
<path d="M40.111 39.7778C33.7113 39.7886 27.4824 41.8441 22.3332 45.6445C21.8989 46.0065 21.6188 46.5204 21.5502 47.0816C21.4815 47.6429 21.6293 48.2092 21.9636 48.6652C22.2978 49.1213 22.7933 49.4328 23.3492 49.5363C23.9051 49.6398 24.4795 49.5275 24.9555 49.2222C29.3318 45.9921 34.6206 44.2345 40.0598 44.2025C45.4991 44.1706 50.8081 45.866 55.2221 49.0445C55.452 49.266 55.727 49.4354 56.0282 49.5411C56.3295 49.6469 56.65 49.6864 56.9679 49.6572C57.2858 49.6279 57.5937 49.5305 57.8706 49.3715C58.1475 49.2125 58.3869 48.9958 58.5724 48.7359C58.758 48.4761 58.8854 48.1794 58.946 47.8659C59.0066 47.5525 58.9989 47.2296 58.9235 46.9194C58.848 46.6092 58.7067 46.3188 58.5089 46.0681C58.3112 45.8174 58.0618 45.6123 57.7777 45.4667C52.6368 41.7534 46.4527 39.7621 40.111 39.7778Z" fill="#DB890C"/>
<path d="M40 54.2667C38.2419 54.2667 36.5233 54.788 35.0616 55.7647C33.5998 56.7414 32.4605 58.1297 31.7877 59.7539C31.1149 61.3782 30.9389 63.1654 31.2819 64.8897C31.6249 66.614 32.4715 68.1978 33.7146 69.4409C34.9577 70.6841 36.5416 71.5307 38.2658 71.8736C39.9901 72.2166 41.7774 72.0406 43.4016 71.3678C45.0258 70.695 46.4141 69.5557 47.3908 68.094C48.3675 66.6322 48.8889 64.9136 48.8889 63.1556C48.8889 60.7981 47.9524 58.5371 46.2854 56.8702C44.6184 55.2032 42.3575 54.2667 40 54.2667ZM40 67.6C39.121 67.6 38.2617 67.3393 37.5308 66.851C36.7999 66.3626 36.2302 65.6685 35.8938 64.8564C35.5575 64.0443 35.4694 63.1506 35.6409 62.2885C35.8124 61.4263 36.2357 60.6344 36.8573 60.0129C37.4788 59.3913 38.2708 58.968 39.1329 58.7965C39.995 58.625 40.8887 58.713 41.7008 59.0494C42.5129 59.3858 43.207 59.9555 43.6954 60.6863C44.1838 61.4172 44.4444 62.2765 44.4444 63.1556C44.4444 64.3343 43.9762 65.4648 43.1427 66.2982C42.3092 67.1317 41.1787 67.6 40 67.6Z" fill="#DB890C"/>
</g>
<defs>
<clipPath id="clip0_11_10">
<rect width="80" height="80" fill="white"/>
</clipPath>
</defs>
</svg>
